<?xml version="1.0" encoding="UTF-8"?>
<svg version="1.1" xmlns="http://www.w3.org/2000/svg" width="2000" height="337">
<path d="M0 0 C1.50700501 1.40921267 3.007608 2.82532089 4.5 4.25 C5.15871094 4.84554687 5.81742187 5.44109375 6.49609375 6.0546875 C27.93068958 26.15231659 40.09202256 55.3376878 41.78515625 84.34765625 C42.48215325 114.62156953 31.18834498 143.96347303 10.5234375 166.07421875 C8.90342948 167.81619649 7.40567706 169.57025467 5.9375 171.4375 C2.16562631 175.78966195 -1.95429493 180.40143164 -7.5 182.25 C-7.49111755 183.43937164 -7.48223511 184.62874329 -7.4730835 185.85415649 C-7.39197694 197.06593659 -7.3320245 208.27765711 -7.29275131 219.48966408 C-7.27188173 225.25381325 -7.24357505 231.01772547 -7.19824219 236.78173828 C-7.15476278 242.34493716 -7.13085816 247.9079082 -7.12049103 253.47126389 C-7.11310348 255.59314943 -7.09867734 257.71502258 -7.07707977 259.83681107 C-7.04801845 262.81026348 -7.04404521 265.78277594 -7.04589844 268.75634766 C-7.03151733 269.6324469 -7.01713623 270.50854614 -7.00231934 271.41119385 C-7.03898881 276.85298471 -7.89249772 279.92220274 -11.5 284.25 C-15.5150799 287.77840355 -18.97450789 288.36928289 -24.26953125 288.67578125 C-30.72919167 287.4426762 -35.80556301 281.36193181 -40.375 277 C-41.08462891 276.32904297 -41.79425781 275.65808594 -42.52539062 274.96679688 C-46.68547371 271.0210327 -50.77370669 267.0150958 -54.79296875 262.92578125 C-56.57148884 261.17981988 -58.41906268 259.55773595 -60.3125 257.9375 C-63.70195605 255.02749549 -66.86451453 251.92840058 -70 248.75 C-73.66456244 245.03548612 -77.42213811 241.5193958 -81.39453125 238.13671875 C-85.05383283 234.85760434 -88.45361641 231.31337656 -91.88671875 227.80078125 C-96.42310685 222.99899786 -96.42310685 222.99899786 -102.42480469 220.91943359 C-103.49633789 220.99500488 -104.56787109 221.07057617 -105.671875 221.1484375 C-106.88077393 221.21724121 -108.08967285 221.28604492 -109.33520508 221.35693359 C-110.6270874 221.44539551 -111.91896973 221.53385742 -113.25 221.625 C-115.97713326 221.76928665 -118.70492049 221.8889218 -121.43359375 222 C-122.11858444 222.02814789 -122.80357513 222.05629578 -123.50932312 222.08529663 C-170.51869744 223.79968422 -217.82065353 206.93974764 -252.5 175.25 C-253.43070313 174.41339844 -254.36140625 173.57679688 -255.3203125 172.71484375 C-270.09412648 158.76179721 -280.33328845 141.11804089 -286.875 122 C-287.23343994 120.95598022 -287.23343994 120.95598022 -287.59912109 119.89086914 C-295.82564216 94.34457254 -292.82434925 65.31752647 -281.5 41.25 C-281.21141113 40.63318359 -280.92282227 40.01636719 -280.62548828 39.38085938 C-275.82528528 29.29757735 -269.70172082 20.75025818 -262.5 12.25 C-261.77425781 11.38246094 -261.04851562 10.51492187 -260.30078125 9.62109375 C-256.05705372 4.69370088 -251.54002066 0.35254241 -246.5 -3.75 C-245.15035156 -4.87341797 -245.15035156 -4.87341797 -243.7734375 -6.01953125 C-175.16416753 -61.16748876 -65.62598621 -57.958003 0 0 Z M-171.5 12.25 C-171.85669893 14.89705128 -171.96776797 17.12235676 -171.890625 19.76171875 C-171.88496521 20.48994339 -171.87930542 21.21816803 -171.87347412 21.96846008 C-171.85110029 24.29214498 -171.80090669 26.61428207 -171.75 28.9375 C-171.72993609 30.51364959 -171.71168512 32.08982337 -171.6953125 33.66601562 C-171.65123283 37.52793924 -171.58220225 41.3887073 -171.5 45.25 C-170.40308838 44.62295166 -169.30617676 43.99590332 -168.17602539 43.34985352 C-156.24144722 36.52746483 -143.18497109 30.01477225 -128.98828125 32.73046875 C-122.97158975 34.68562344 -120.35976463 36.90242366 -117.25 42.5 C-115.63258733 48.43051313 -115.85723102 54.48557358 -118.28125 60.1640625 C-122.36377555 67.151462 -128.7056088 72.48659128 -134.6875 77.8125 C-143.45455506 85.67678162 -148.81318388 93.78880702 -149.78125 105.71484375 C-149.97143195 113.13986418 -149.23912881 116.9456565 -146.5 124.25 C-136.93 124.25 -127.36 124.25 -117.5 124.25 C-118.16 121.61 -118.82 118.97 -119.5 116.25 C-119.89346571 108.74388491 -118.31760796 103.00595441 -113.5 97.25 C-109.38824107 92.74664499 -104.97770607 88.61997013 -100.375 84.625 C-99.72273438 84.05652344 -99.07046875 83.48804688 -98.3984375 82.90234375 C-97.1822792 81.8438356 -95.95890598 80.79352641 -94.7265625 79.75390625 C-90.69335125 76.09481641 -87.90232137 71.94478996 -85.1875 67.25 C-84.84976563 66.66855225 -84.51203125 66.08710449 -84.1640625 65.48803711 C-78.28943071 54.9056728 -77.64651951 42.0855291 -80.41015625 30.40234375 C-84.66561893 18.70324217 -91.29678615 10.58865796 -102.6875 5.21875 C-120.13254888 -1.19487091 -156.86379596 -2.74862064 -171.5 12.25 Z M-150.00390625 145.8203125 C-153.39364387 150.71003854 -153.34749776 156.53371406 -152.5 162.25 C-149.88770696 167.6755317 -145.62166539 171.75201963 -140.171875 174.3671875 C-134.12296619 176.36580357 -126.97608129 176.31428601 -121.125 173.6875 C-116.54598539 171.02039128 -112.8683727 166.9867454 -110.5 162.25 C-109.98161234 157.04912708 -109.83404601 152.63313522 -112.125 147.875 C-116.83555236 142.66860002 -121.30283681 138.8220904 -128.48046875 137.84375 C-137.39672681 137.58310421 -143.71257002 139.25117701 -150.00390625 145.8203125 Z " fill="#FF552F" transform="translate(311.5,46.75)"/>
<path d="M0 0 C3.51377635 2.83069386 6.7846018 5.83604817 10 9 C10.77472656 9.76183594 11.54945313 10.52367188 12.34765625 11.30859375 C22.43952988 21.85053379 28.20704315 34.00628799 32 48 C32.3196875 49.17304688 32.639375 50.34609375 32.96875 51.5546875 C39.16037825 78.67172603 35.35114707 107.00381951 21.0703125 130.80859375 C18.4082351 134.91221118 15.44444175 138.53403049 12 142 C14.87681367 146.43620799 17.9619816 150.61171157 21.25 154.75 C21.72727539 155.35763184 22.20455078 155.96526367 22.69628906 156.59130859 C24.93293433 159.43162367 27.19588219 162.23155209 29.53125 164.9921875 C30.2634375 165.86101562 30.995625 166.72984375 31.75 167.625 C32.40484375 168.38039062 33.0596875 169.13578125 33.734375 169.9140625 C35 172 35 172 35.046875 173.99609375 C33.4727227 177.00930319 31.23211644 178.43236999 28.5 180.4375 C27.32394058 181.31212609 26.14817499 182.18714736 24.97265625 183.0625 C24.33730957 183.53042969 23.70196289 183.99835938 23.04736328 184.48046875 C19.30983911 187.25441944 15.62883797 190.10256835 11.9375 192.9375 C9.8613486 194.52665008 7.78478005 196.11478003 5.69873047 197.69091797 C4.34914344 198.73094178 3.04294978 199.82722428 1.75390625 200.94140625 C0 202 0 202 -1.94750977 201.75805664 C-4.37978796 200.85973098 -5.1034218 200.02361047 -6.59375 197.9296875 C-7.06135742 197.28708984 -7.52896484 196.64449219 -8.01074219 195.98242188 C-8.50219727 195.28697266 -8.99365234 194.59152344 -9.5 193.875 C-10.55507593 192.42286669 -11.61243356 190.97238891 -12.671875 189.5234375 C-13.21521484 188.77803711 -13.75855469 188.03263672 -14.31835938 187.26464844 C-17.03736511 183.60299089 -19.88697008 180.0495025 -22.75 176.5 C-23.27529297 175.84757324 -23.80058594 175.19514648 -24.34179688 174.52294922 C-25.55908532 173.01359324 -26.77920097 171.50651796 -28 170 C-29.14597656 170.27714844 -30.29195312 170.55429688 -31.47265625 170.83984375 C-33.0025644 171.20589539 -34.53251457 171.57177147 -36.0625 171.9375 C-37.19075195 172.21110352 -37.19075195 172.21110352 -38.34179688 172.49023438 C-63.97697329 178.59384781 -92.0475639 174.88843686 -115.00390625 161.87890625 C-119.68074521 158.94597334 -123.88194667 155.66968907 -128 152 C-128.75925781 151.33484375 -129.51851563 150.6696875 -130.30078125 149.984375 C-147.26308754 134.16460747 -155.94467938 110.47744123 -157.12207031 87.63134766 C-158.11987343 57.6431564 -151.50025188 31.82865887 -131.29296875 9.078125 C-99.36477979 -24.71939587 -36.78496048 -26.44506529 0 0 Z M-95.33984375 42.76953125 C-105.18448752 55.9960997 -108.60011153 71.79194186 -107 88 C-105.60487308 97.31407009 -102.43566833 105.33929161 -97 113 C-96.13375 114.3303125 -96.13375 114.3303125 -95.25 115.6875 C-86.00427981 125.19004575 -74.94480703 129.05346155 -61.875 129.25 C-49.8223287 129.12645326 -38.59832417 125.67767704 -29.46875 117.5625 C-17.709669 105.05283937 -14.2582362 89.84121457 -14.625 73.1953125 C-15.3348557 59.44946392 -20.83863278 47.5308077 -30.9375 38.125 C-49.18077061 23.2146346 -79.29638822 25.588242 -95.33984375 42.76953125 Z " fill="#001E3E" transform="translate(562,79)"/>
<path d="M0 0 C15.84 0 31.68 0 48 0 C48.03738281 5.51460938 48.07476563 11.02921875 48.11328125 16.7109375 C48.14358382 20.22008238 48.17474661 23.72917794 48.20898438 27.23828125 C48.26315789 32.79896455 48.3142734 38.3595503 48.34643555 43.92041016 C48.37258742 48.40746261 48.41307247 52.8941845 48.46318626 57.38103104 C48.47977504 59.08645111 48.49133878 60.79192825 48.49761391 62.49741745 C48.31616867 79.30197831 48.31616867 79.30197831 56.203125 93.59375 C60.95267629 97.31079014 67.00727705 98.56626817 72.95703125 98.28125 C78.32401236 97.54239218 83.2303881 96.34164599 86.9375 92.1875 C91.87945865 84.54992755 92.10044227 76.07688243 92.20532227 67.20703125 C92.21522186 66.47434525 92.22512146 65.74165924 92.23532104 64.98677063 C92.26659019 62.59537853 92.29155467 60.20396664 92.31640625 57.8125 C92.33700576 56.14241049 92.35800296 54.47232584 92.37937927 52.80224609 C92.43429071 48.42938196 92.48383497 44.05647321 92.53222656 39.68353271 C92.5915544 34.42452673 92.65761039 29.16560139 92.72252655 23.90666199 C92.82014631 15.93782436 92.90926845 7.96893244 93 0 C108.84 0 124.68 0 141 0 C141.04010881 26.40050961 141.04010881 26.40050961 141.04882812 37.76953125 C141.05477513 45.48682352 141.0617631 53.20410377 141.07543945 60.92138672 C141.08641121 67.1524646 141.09230669 73.38352958 141.09487724 79.61461639 C141.09670601 81.97609408 141.10027625 84.33757117 141.10573006 86.69904327 C141.18723222 123.49725924 141.18723222 123.49725924 138.75 139.75 C138.62141602 140.61431641 138.49283203 141.47863281 138.36035156 142.36914062 C135.30324252 161.50254825 128.1619513 180.03107497 112.23046875 192.09765625 C90.13331242 206.65396483 61.63423086 208.19423364 36.09106445 203.40795898 C25.75185593 201.24035193 16.04492974 197.78367236 6.625 193 C5.97571533 192.6800708 5.32643066 192.3601416 4.6574707 192.03051758 C0.26831863 189.67780864 0.26831863 189.67780864 -0.84545898 186.86425781 C-1.05946466 182.89788412 0.23991568 179.73274607 1.67578125 176.109375 C2.10361153 174.99154633 2.10361153 174.99154633 2.54008484 173.85113525 C3.14364859 172.2822089 3.75339177 170.71564755 4.36889648 169.15136719 C5.31260074 166.74974364 6.23482972 164.34068015 7.15429688 161.9296875 C7.74354459 160.40576721 8.33399787 158.88231241 8.92578125 157.359375 C9.20295486 156.63651306 9.48012848 155.91365112 9.76570129 155.16888428 C11.7682783 150.11586085 11.7682783 150.11586085 14 149 C16.20489993 150.01995371 18.30638924 151.09281279 20.4375 152.25 C36.38378356 160.55215303 54.5058064 162.26451257 72 158 C79.02413633 155.72426736 85.66270141 152.24586194 89.3203125 145.6015625 C91.29254805 141.00887412 92.53328017 137.06616157 92 132 C91.10861328 132.59748047 91.10861328 132.59748047 90.19921875 133.20703125 C75.53253108 142.58185028 57.52163669 144.08102972 40.625 140.8125 C27.70900772 137.63475587 17.8324574 130.94160535 10.1875 119.9375 C-0.09621338 102.52309857 -0.31613633 82.12089991 -0.1953125 62.5 C-0.19157085 60.68440916 -0.18872935 58.86881626 -0.18673706 57.05322266 C-0.17919113 52.33184997 -0.15962318 47.61060522 -0.1373291 42.88928223 C-0.11302544 37.19380333 -0.10404654 31.49828107 -0.09242249 25.80276489 C-0.07319124 17.20175496 -0.0348063 8.60102436 0 0 Z " fill="#001E3E" transform="translate(1061,112)"/>
<path d="M0 0 C13.2 0 26.4 0 40 0 C40.0227187 12.71023651 40.04101131 25.42045922 40.05181217 38.13071156 C40.05699968 44.0344958 40.06402095 49.93826527 40.07543945 55.84204102 C40.08641684 61.55440603 40.09230783 67.26675694 40.09487724 72.9791317 C40.09670503 75.14326893 40.10027323 77.30740551 40.10573006 79.47153664 C40.13767838 92.68436093 39.85470194 105.81338642 39 119 C39.49089111 118.2992334 39.98178223 117.5984668 40.48754883 116.87646484 C47.56591225 106.83007176 55.43238367 97.20131395 64.31298828 88.6862793 C66.04163124 86.95838684 67.63362747 85.16198945 69.2265625 83.30859375 C73.51019731 78.38012889 77.99090732 73.65036024 82.48242188 68.91210938 C83.42118164 67.91727539 83.42118164 67.91727539 84.37890625 66.90234375 C84.9313501 66.31960693 85.48379395 65.73687012 86.05297852 65.13647461 C87.97247867 63.13730643 87.97247867 63.13730643 89.18713379 61.22206116 C91.25788278 58.32284235 92.77841335 56.32313146 96.30781555 55.38954163 C99.11366487 55.19043024 101.83745199 55.21226826 104.6484375 55.31640625 C105.66096588 55.32631088 106.67349426 55.33621552 107.71670532 55.34642029 C110.93763607 55.38547779 114.15510679 55.47328563 117.375 55.5625 C119.56375272 55.59762493 121.75255908 55.62956186 123.94140625 55.65820312 C129.29544312 55.73521002 134.64747438 55.85220974 140 56 C133.8115425 64.41308838 133.8115425 64.41308838 130.23046875 68.1484375 C129.57401367 68.8384082 128.91755859 69.52837891 128.24121094 70.23925781 C127.22462402 71.2964502 127.22462402 71.2964502 126.1875 72.375 C124.75831538 73.87684403 123.32992387 75.37944323 121.90234375 76.8828125 C121.22413574 77.59598633 120.54592773 78.30916016 119.84716797 79.04394531 C116.90334169 82.16130404 114.0483304 85.35453435 111.1953125 88.5546875 C108.53266191 91.52055808 105.83142569 94.44911122 103.125 97.375 C102.62274902 97.91850098 102.12049805 98.46200195 101.60302734 99.02197266 C99.54437638 101.2493763 97.4852174 103.47630191 95.42382812 105.70117188 C93.90562526 107.34067934 92.39008193 108.98260875 90.875 110.625 C89.54082031 112.06746094 89.54082031 112.06746094 88.1796875 113.5390625 C85.90548919 115.99395984 85.90548919 115.99395984 84 119 C90.83798014 128.58956462 97.77442514 138.08759178 104.9375 147.4375 C111.22633466 155.64696251 117.41474449 163.92138039 123.5234375 172.265625 C125.96738931 175.60350079 128.43385508 178.92335316 130.9140625 182.234375 C131.55585449 183.09466309 132.19764648 183.95495117 132.85888672 184.84130859 C134.08800488 186.4880667 135.3211863 188.13180258 136.55908203 189.77197266 C137.11192871 190.51495605 137.66477539 191.25793945 138.234375 192.0234375 C138.72131836 192.67231934 139.20826172 193.32120117 139.70996094 193.98974609 C141.15202378 196.23689702 142.08102274 198.49858078 143 201 C136.68983214 201.46074702 130.38403966 201.7731879 124.06079102 201.98876953 C121.91689215 202.07868276 119.77407879 202.20109293 117.6340332 202.35791016 C100.39061917 203.58872068 100.39061917 203.58872068 94.79852295 199.31918335 C90.87953154 195.13470558 88.06580929 190.41555001 85.35888672 185.38957214 C83.0748743 181.37318698 80.27275676 177.74966867 77.5 174.0625 C72.2372741 166.82845597 67.17500171 159.46708837 62.22460938 152.01586914 C61.45987305 150.87879517 61.45987305 150.87879517 60.6796875 149.71875 C60.23351074 149.04779297 59.78733398 148.37683594 59.32763672 147.68554688 C57.92571203 145.72629058 57.92571203 145.72629058 55 144 C53.62714844 145.19109375 53.62714844 145.19109375 52.2265625 146.40625 C51.02626289 147.43775748 49.82572995 148.46899349 48.625 149.5 C48.02171875 150.02464844 47.4184375 150.54929688 46.796875 151.08984375 C42.2265625 155 42.2265625 155 40 155 C40 170.18 40 185.36 40 201 C26.8 201 13.6 201 0 201 C0 134.67 0 68.34 0 0 Z " fill="#FF552F" transform="translate(1834,51)"/>
<path d="M0 0 C13.28868026 11.25532733 20.15055542 27.02876123 22.21484375 44.140625 C22.99676914 54.33823531 22.23667137 62.88465925 20.52734375 73.140625 C-23.52765625 73.635625 -23.52765625 73.635625 -68.47265625 74.140625 C-63.81713004 84.03108164 -63.81713004 84.03108164 -55.47265625 89.140625 C-47.40214425 91.67800707 -38.08697197 90.63909438 -30.47265625 87.140625 C-28.4313633 85.60613582 -27.10414174 84.14051043 -25.47265625 82.140625 C-24.47265625 81.140625 -24.47265625 81.140625 -22.56809998 81.02037048 C-21.73537064 81.02259109 -20.9026413 81.02481171 -20.04467773 81.02709961 C-19.10377792 81.02717514 -18.16287811 81.02725067 -17.19346619 81.02732849 C-16.17055984 81.03248978 -15.1476535 81.03765106 -14.09375 81.04296875 C-13.05195084 81.0443837 -12.01015167 81.04579865 -10.93678284 81.04725647 C-7.59454531 81.0528742 -4.25237368 81.0654297 -0.91015625 81.078125 C1.34960841 81.08313772 3.60937412 81.08770102 5.86914062 81.09179688 C11.42189766 81.10284939 16.974616 81.11960476 22.52734375 81.140625 C18.5813758 98.52421352 11.14171703 111.3080093 -4.0234375 121.09765625 C-22.21209304 132.22513388 -46.18096578 133.83879697 -66.66015625 129.171875 C-81.96487458 125.03207414 -97.20186497 116.31427416 -105.53564453 102.36083984 C-116.83711474 82.18718742 -119.99225125 58.64136075 -114.06787109 36.12304688 C-111.05908139 26.10197535 -106.62592576 16.84759947 -99.47265625 9.140625 C-98.79460938 8.38394531 -98.1165625 7.62726563 -97.41796875 6.84765625 C-73.07090377 -19.01568501 -27.93299682 -21.64105923 0 0 Z M-64.47265625 31.140625 C-67.41426976 35.8430206 -67.41426976 35.8430206 -68.47265625 41.140625 C-53.29265625 41.140625 -38.11265625 41.140625 -22.47265625 41.140625 C-24.42483497 33.55986489 -24.42483497 33.55986489 -28.78515625 28.703125 C-29.61466797 28.02443359 -29.61466797 28.02443359 -30.4609375 27.33203125 C-40.7976386 21.21029565 -55.99697965 22.42951294 -64.47265625 31.140625 Z " fill="#001E3E" transform="translate(897.47265625,122.859375)"/>
<path d="M0 0 C15.84 0 31.68 0 48 0 C48.02578125 5.88714844 48.0515625 11.77429688 48.078125 17.83984375 C48.10330746 21.58142306 48.12965111 25.32292266 48.16015625 29.06445312 C48.20840837 34.99617765 48.25248419 40.92771752 48.27099609 46.85961914 C48.2861999 51.64497925 48.32071135 56.42985458 48.36830902 61.21499825 C48.38308449 63.03567847 48.3910388 64.85642791 48.39188385 66.67716789 C48.02843622 79.97833216 48.02843622 79.97833216 53 92 C57.70188686 96.58720669 61.44798022 97.16847332 67.875 97.25 C69.08929687 97.27578125 70.30359375 97.3015625 71.5546875 97.328125 C75.26360389 96.97489487 77.07256463 96.25634459 80 94 C83.62891618 87.90860499 84.15325145 82.81108301 84.20532227 75.83496094 C84.21522186 75.0150769 84.22512146 74.19519287 84.23532104 73.35046387 C84.26686483 70.64513011 84.29166529 67.93977881 84.31640625 65.234375 C84.33698193 63.35678658 84.35797856 61.47920273 84.37937927 59.60162354 C84.43453655 54.6631643 84.4839738 49.7246637 84.53222656 44.78613281 C84.59132699 38.85893231 84.65752004 32.9318073 84.72252655 27.00466919 C84.82045624 18.00315895 84.90936692 9.00159999 85 0 C100.84 0 116.68 0 133 0 C133.08021762 20.032122 133.08021762 20.032122 133.09765625 28.67382812 C133.10953984 34.53462415 133.12348647 40.39535677 133.15087891 46.25610352 C133.17285939 50.98940277 133.18462083 55.72263388 133.18975449 60.4559803 C133.19340559 62.24777357 133.20053277 64.03956377 133.21146011 65.83132744 C133.26331824 74.69989787 133.13209482 83.45859889 132.12060547 92.27758789 C132.00561046 93.28687048 132.00561046 93.28687048 131.88829231 94.31654263 C130.13639162 107.9118704 124.32295042 120.0860478 113.625 128.875 C95.61438548 141.73095823 72.7545925 144.37408433 51.25976562 141.1796875 C34.06769551 138.22258852 19.50206108 131.36488815 9 117 C0.06435956 101.82111733 -0.43566068 86.06989502 -0.29296875 68.9453125 C-0.28736069 66.94750286 -0.28309633 64.94968905 -0.28010559 62.95187378 C-0.26875195 57.74050129 -0.2393684 52.529387 -0.20599365 47.31811523 C-0.16963456 41.04035272 -0.1560864 34.76250299 -0.13863373 28.48466492 C-0.10972385 18.98959804 -0.05217086 9.49509566 0 0 Z " fill="#001F3E" transform="translate(623,112)"/>
<path d="M0 0 C-0.66446037 4.06279501 -1.93650837 7.593141 -3.50390625 11.39453125 C-3.99697266 12.59658203 -4.49003906 13.79863281 -4.99804688 15.03710938 C-5.51943405 16.29561319 -6.04091966 17.55407623 -6.5625 18.8125 C-7.08830158 20.09032577 -7.61369647 21.36831896 -8.13867188 22.64648438 C-9.42179052 25.765993 -10.70903385 28.88373266 -12 32 C-15.75206852 31.44063276 -19.21771147 30.70593933 -22.79296875 29.44140625 C-23.66501953 29.13855713 -24.53707031 28.83570801 -25.43554688 28.52368164 C-26.34369141 28.2064917 -27.25183594 27.88930176 -28.1875 27.5625 C-41.41968713 23.07203622 -56.32819491 18.61547337 -70.05859375 23.875 C-74.0919763 26.21225186 -76.933938 29.867876 -79 34 C-79.51299774 39.14679697 -79.66628033 43.58748569 -77.4375 48.3125 C-72.40012658 53.86652711 -67.13840073 57.80017772 -60.37109375 60.98828125 C-59.65953629 61.33577927 -58.94797882 61.68327728 -58.21485901 62.04130554 C-55.96038598 63.14161412 -53.69985477 64.22850049 -51.4375 65.3125 C-10.29898804 85.05880635 -10.29898804 85.05880635 -1.94140625 104.45703125 C-1.18800039 106.63073333 -0.53923854 108.76423404 0 111 C0.18175781 111.71542969 0.36351562 112.43085938 0.55078125 113.16796875 C3.40181191 131.14185768 -0.14940175 146.79227827 -10.8125 161.5 C-22.17276984 174.48316553 -40.22594767 180.00307898 -56.89160156 181.30371094 C-60.82653791 181.43576911 -64.75130966 181.4739231 -68.6875 181.4375 C-69.38010925 181.43479095 -70.07271851 181.43208191 -70.78631592 181.42929077 C-87.59836259 181.33007261 -107.57082368 179.61945088 -122 170 C-122.26660183 167.09165115 -122.34779124 164.39861732 -122.29296875 161.4921875 C-122.28660149 160.23125778 -122.28660149 160.23125778 -122.28010559 158.94485474 C-122.26328532 156.25458007 -122.22562781 153.56504901 -122.1875 150.875 C-122.17245745 149.05339622 -122.1587683 147.23178072 -122.14648438 145.41015625 C-122.11337094 140.93981676 -122.06156637 136.47003454 -122 132 C-116.70117595 133.71923674 -111.46903702 135.55466769 -106.26831055 137.55053711 C-93.03424252 142.58660804 -80.76560947 146.3154299 -66.5 146.4375 C-65.11977661 146.4528479 -65.11977661 146.4528479 -63.71166992 146.46850586 C-55.01052909 146.35517467 -48.24769331 144.24769331 -42 138 C-39.36867488 133.69419526 -39.4766905 128.90166561 -40 124 C-42.57703154 115.58169698 -50.5213712 110.63800568 -57.89526367 106.63745117 C-61.57211858 104.70769258 -65.27818786 102.84133475 -69 101 C-69.70705078 100.64905273 -70.41410156 100.29810547 -71.14257812 99.93652344 C-72.52481991 99.25056498 -73.90722265 98.56493076 -75.28979492 97.87963867 C-91.94660869 89.60651994 -107.27679594 81.25201918 -116 64 C-116.43183594 63.14664063 -116.86367187 62.29328125 -117.30859375 61.4140625 C-122.3820181 49.16060162 -121.92165704 32.14419333 -117.3203125 19.8203125 C-110.49812996 5.24748471 -100.59548204 -2.86566697 -86 -9 C-58.8805684 -18.33619777 -25.04722867 -13.44597546 0 0 Z " fill="#FF552F" transform="translate(1393,73)"/>
<path d="M0 0 C11.82053792 10.77152914 14.75487428 23.0815819 15.8046875 38.64453125 C16.11472859 46.26742002 16.03950727 53.89608536 16 61.5234375 C15.99625983 63.67390307 15.99341762 65.82437036 15.99142456 67.97483826 C15.98386705 73.57572312 15.96428835 79.17650066 15.9420166 84.77734375 C15.92138624 90.51626129 15.91238646 96.25519653 15.90234375 101.99414062 C15.88103332 113.21099171 15.84591756 124.42773568 15.8046875 135.64453125 C6.2346875 135.64453125 -3.3353125 135.64453125 -13.1953125 135.64453125 C-17.1553125 126.23953125 -17.1553125 126.23953125 -21.1953125 116.64453125 C-22.1234375 117.79953125 -23.0515625 118.95453125 -24.0078125 120.14453125 C-32.7896664 130.11025681 -44.34107901 136.89535767 -57.75976562 137.8215332 C-74.67568621 138.20308389 -89.9263821 138.38286179 -102.9375 125.984375 C-112.23649547 115.82950184 -114.82460141 102.53246686 -114.48046875 89.06640625 C-113.55762028 77.99222459 -110.26695927 68.27736301 -102.1953125 60.45703125 C-88.01592741 48.74565079 -67.88507171 45.75421852 -49.9765625 45.328125 C-48.86154358 45.29695335 -48.86154358 45.29695335 -47.72399902 45.26515198 C-45.38118502 45.20047997 -43.03827226 45.14116033 -40.6953125 45.08203125 C-39.09374034 45.03876741 -37.49217768 44.99515081 -35.890625 44.95117188 C-31.99228517 44.84488489 -28.0938474 44.74339331 -24.1953125 44.64453125 C-24.59437817 42.09897601 -25.0138091 39.55961828 -25.4453125 37.01953125 C-25.60966797 35.95025391 -25.60966797 35.95025391 -25.77734375 34.859375 C-26.63038165 29.96563127 -28.05722614 26.62744332 -31.1953125 22.64453125 C-39.00987595 17.26212475 -48.59432355 17.86104031 -57.57421875 19.1171875 C-64.99015843 20.52613167 -71.89279463 22.83186232 -78.86645508 25.66259766 C-82.26717282 27.02770176 -84.46290471 27.64453125 -88.1953125 27.64453125 C-90.23564306 23.73772395 -92.24910665 19.81767966 -94.2578125 15.89453125 C-94.83853516 14.78335938 -95.41925781 13.6721875 -96.01757812 12.52734375 C-96.56220703 11.45742187 -97.10683594 10.3875 -97.66796875 9.28515625 C-98.17593994 8.30063477 -98.68391113 7.31611328 -99.20727539 6.30175781 C-100.25971376 3.47133054 -100.43101 2.36698128 -99.1953125 -0.35546875 C-74.04285605 -16.8677684 -23.92564531 -19.60711597 0 0 Z M-68.9453125 79.26953125 C-72.44565701 83.75540965 -73.42849121 89.29258729 -73.0390625 94.890625 C-72.06738555 99.83309716 -70.18609748 102.6726701 -66.1953125 105.64453125 C-58.19297658 109.36794458 -51.08734202 109.40676313 -42.75390625 106.6796875 C-36.13290818 104.00096309 -30.62812418 100.31061274 -27.125 93.96875 C-23.91223224 85.93683059 -23.8932059 77.17065097 -24.1953125 68.64453125 C-48.42959071 68.02892846 -48.42959071 68.02892846 -68.9453125 79.26953125 Z " fill="#FF5530" transform="translate(1643.1953125,116.35546875)"/>
<path d="M0 0 C1.084021 0.00523682 2.16804199 0.01047363 3.28491211 0.01586914 C4.33815674 0.0183667 5.39140137 0.02086426 6.4765625 0.0234375 C7.82484131 0.0325415 9.17312012 0.04164551 10.56225586 0.05102539 C14.83163086 0.07165039 19.10100586 0.09227539 23.49975586 0.11352539 C23.49975586 10.34352539 23.49975586 20.57352539 23.49975586 31.11352539 C36.69975586 31.11352539 49.89975586 31.11352539 63.49975586 31.11352539 C63.49975586 41.01352539 63.49975586 50.91352539 63.49975586 61.11352539 C50.29975586 61.11352539 37.09975586 61.11352539 23.49975586 61.11352539 C23.56147646 74.29733111 23.56147646 74.29733111 23.65991211 87.48071289 C23.70821988 92.8596223 23.75227462 98.23832626 23.77075195 103.61743164 C23.78592289 107.95541764 23.82037583 112.29286531 23.86806488 116.63061142 C23.88287424 118.28351023 23.89079662 119.9364859 23.89163971 121.58945084 C23.89401257 123.90941657 23.92111493 126.22789842 23.95385742 128.54760742 C23.96273987 129.8666507 23.97162231 131.18569397 23.98077393 132.54470825 C24.58654785 136.71035684 25.86592015 138.86591304 28.49975586 142.11352539 C35.64959154 146.77517892 44.044043 145.94094699 52.15991211 144.43383789 C54.36699177 143.91130494 56.56751572 143.359615 58.75756836 142.76977539 C61.49975586 142.11352539 61.49975586 142.11352539 65.49975586 142.11352539 C65.49975586 152.01352539 65.49975586 161.91352539 65.49975586 172.11352539 C61.72538086 173.32008789 61.72538086 173.32008789 57.87475586 174.55102539 C57.09406738 174.80295654 56.31337891 175.0548877 55.5090332 175.31445312 C54.55697998 175.6152478 54.55697998 175.6152478 53.58569336 175.92211914 C52.94680176 176.12635498 52.30791016 176.33059082 51.6496582 176.54101562 C44.76302236 178.37489719 37.94991796 178.33140207 30.87475586 178.36352539 C29.20606445 178.39446289 29.20606445 178.39446289 27.50366211 178.42602539 C14.92272048 178.48460952 2.72483188 176.22765975 -6.53540039 167.10961914 C-21.92628598 148.84315408 -17.76290618 119.81426566 -17.63757324 97.42822266 C-17.61683567 93.32464677 -17.60792085 89.22104521 -17.59790039 85.11743164 C-17.57667532 77.1160524 -17.54160275 69.1148259 -17.50024414 61.11352539 C-23.44024414 61.11352539 -29.38024414 61.11352539 -35.50024414 61.11352539 C-37.48502471 48.01397363 -37.48502471 48.01397363 -35.50024414 43.11352539 C-31.89962037 39.53790595 -27.53360757 37.37859109 -22.96606445 35.2590332 C-16.8355888 32.39358052 -16.8355888 32.39358052 -13.12133789 26.96118164 C-12.55394964 25.35458582 -12.01490073 23.73778158 -11.50024414 22.11352539 C-10.80521959 20.29840762 -10.10314877 18.48597534 -9.39477539 16.67602539 C-8.69819126 14.8228241 -8.00419848 12.96864678 -7.31274414 11.11352539 C-6.61339729 9.23760045 -5.91170463 7.36254776 -5.20727539 5.48852539 C-4.90281494 4.67125977 -4.59835449 3.85399414 -4.28466797 3.01196289 C-3.14249349 0.24770869 -3.09002779 0.14030494 0 0 Z " fill="#FF5530" transform="translate(1445.500244140625,75.886474609375)"/>
<path d="M0 0 C-2.0246397 5.86394383 -4.06979051 11.72024469 -6.14111328 17.56787109 C-6.84067629 19.54883946 -7.52937078 21.53364332 -8.21484375 23.51953125 C-8.53582031 24.39996094 -8.85679688 25.28039062 -9.1875 26.1875 C-9.44917969 26.92355469 -9.71085937 27.65960938 -9.98046875 28.41796875 C-11 30 -11 30 -12.80419922 30.67260742 C-15.35882731 31.05350094 -16.73201577 30.68390109 -19.15234375 29.8203125 C-19.92900391 29.55089844 -20.70566406 29.28148437 -21.50585938 29.00390625 C-22.70952148 28.56884766 -22.70952148 28.56884766 -23.9375 28.125 C-34.29919192 24.462029 -45.65304019 21.3895733 -56.5 25.25 C-65.04630901 29.52315451 -68.85166959 33.7243792 -71.94140625 42.75 C-76.67281879 59.20708708 -76.95046619 77.83390576 -69.6875 93.625 C-66.49543217 99.37072209 -62.33835874 103.04083637 -56.08984375 105.43359375 C-37.73767285 110.40754661 -21.10215568 103.05107784 -5 95 C-5 106.55 -5 118.1 -5 130 C-20.33093927 137.66546963 -31.2693173 140.57338413 -47.875 140.4375 C-49.84726563 140.42505249 -49.84726563 140.42505249 -51.859375 140.41235352 C-69.04139546 140.113582 -85.650235 136.40436613 -98.5 124.1875 C-108.26593348 113.57443972 -113.97241237 100.2402666 -116 86 C-116.11085938 85.28328125 -116.22171875 84.5665625 -116.3359375 83.828125 C-119.67347727 57.66902949 -115.86538811 32.74670839 -100.8125 10.8125 C-75.32640086 -14.67359914 -31.0357202 -16.4025455 0 0 Z " fill="#FF552F" transform="translate(1806,114)"/>
<path d="M0 0 C0 15.51 0 31.02 0 47 C-9.9 47.495 -9.9 47.495 -20 48 C-28.60016962 49.77062316 -35.34839506 51.98149557 -40.91093445 59.21621704 C-46.13347444 67.77022724 -45.47314587 78.07511286 -45.51171875 87.7265625 C-45.52859397 89.32654167 -45.54674797 90.92650781 -45.56611633 92.52645874 C-45.61331431 96.70530118 -45.64331787 100.88409078 -45.66955566 105.06311035 C-45.70479698 110.09446746 -45.76172246 115.12562177 -45.81494904 120.15681458 C-45.89310823 127.77118274 -45.94398109 135.38529197 -46 143 C-61.84 143 -77.68 143 -94 143 C-94 96.8 -94 50.6 -94 3 C-80.14 3 -66.28 3 -52 3 C-50.57090359 6.57274103 -49.63261683 9.30973516 -49 13 C-48.05125 12.113125 -47.1025 11.22625 -46.125 10.3125 C-32.54322471 -1.24703913 -17.74800945 0 0 0 Z " fill="#001E3E" transform="translate(1039,109)"/>
</svg>
