<?xml version="1.0" encoding="UTF-8"?>
<svg version="1.1" xmlns="http://www.w3.org/2000/svg" width="2000" height="2000">
<path d="M0 0 C0.99669016 0.00040031 0.99669016 0.00040031 2.01351547 0.00080872 C99.65948857 0.04967829 196.89390356 11.14224843 524.1875 119.1875 C525.13367187 119.64624512 526.07984375 120.10499023 527.0546875 120.57763672 C540.51039178 127.11938931 553.55897536 134.22993134 566.53320312 141.67675781 C569.67763926 143.46647183 572.84707513 145.20664275 576.02270508 146.94018555 C608.25096541 164.57904281 639.39726455 185.32188218 668.875 207.25 C669.67333252 207.84159912 670.47166504 208.43319824 671.29418945 209.04272461 C682.88387265 217.65183678 694.19718274 226.55405549 705.3671875 235.69921875 C706.96011865 237.00159379 708.5577952 238.29816032 710.15625 239.59375 C720.62521777 248.09208854 730.84756171 256.84019091 740.70996094 266.03613281 C743.53115491 268.66635366 746.3790257 271.24581462 749.3125 273.75 C753.10449397 277.0219948 756.60007625 280.57187264 760.11499023 284.13427734 C763.38097342 287.42807787 766.76968873 290.49901891 770.2890625 293.515625 C775.72102037 298.29932452 780.5646364 303.5718369 785.2734375 309.0546875 C787.49201828 311.52682036 789.82456669 313.85312178 792.1875 316.1875 C795.75833512 319.72063399 799.15301225 323.32123095 802.41796875 327.13671875 C804.42536023 329.46316583 806.49216638 331.72942686 808.5625 334 C812.45674618 338.31524576 816.15404724 342.75841755 819.80859375 347.27734375 C821.91704837 349.85665195 824.0608109 352.39709676 826.22680664 354.92773438 C831.65920007 361.2792808 836.84401026 367.77732124 841.87646484 374.45117188 C843.24111208 376.25850356 844.61444872 378.05901814 845.98828125 379.859375 C864.26430436 403.90516369 880.99407268 429.08685141 896.1875 455.1875 C896.75380127 456.16033936 896.75380127 456.16033936 897.33154297 457.15283203 C900.01685677 461.79488612 902.61034711 466.48473464 905.1875 471.1875 C905.72745605 472.16654297 906.26741211 473.14558594 906.82373047 474.15429688 C921.06595078 500.046429 933.55597675 526.59625209 944.1875 554.1875 C944.43908875 554.83938293 944.69067749 555.49126587 944.94989014 556.16290283 C966.18889984 611.34133746 979.71822126 668.79127443 985.5625 727.625 C985.64212982 728.42291962 985.72175964 729.22083923 985.80380249 730.04293823 C987.72516126 749.65781757 988.39675231 769.23393974 988.375 788.9375 C988.37439575 789.96041138 988.3737915 790.98332275 988.37316895 792.03723145 C988.24123866 874.899107 971.83682723 957.87857622 932.1875 1053.1875 C931.90583984 1053.81573669 931.62417969 1054.44397339 931.33398438 1055.09124756 C919.42263689 1081.60357452 906.16664161 1107.26800619 891.1875 1132.1875 C890.65688965 1133.07356934 890.1262793 1133.95963867 889.57958984 1134.87255859 C876.62038491 1156.42818411 862.34588425 1177.12435845 847.1875 1197.1875 C846.73858398 1197.7841748 846.28966797 1198.38084961 845.82714844 1198.99560547 C833.35944948 1215.53468271 820.15143374 1231.60847503 806.22265625 1246.9375 C804.41372457 1248.93739375 802.63858199 1250.96019432 800.875 1253 C791.21692296 1264.04715288 781.01055509 1274.52519709 770.62255859 1284.8828125 C768.42297928 1287.07698502 766.22885993 1289.27651723 764.03515625 1291.4765625 C762.6123 1292.89875856 761.18913391 1294.32064471 759.765625 1295.7421875 C759.12272522 1296.38711151 758.47982544 1297.03203552 757.81744385 1297.69650269 C753.99907594 1301.49549964 750.07019934 1305.11222083 745.98731995 1308.62579346 C743.21467775 1311.03161937 740.55200336 1313.55151563 737.875 1316.0625 C733.08984279 1320.51432475 728.18175346 1324.73640059 723.08203125 1328.828125 C719.0534091 1332.11191418 715.13225685 1335.51712678 711.22094727 1338.93945312 C710.66850342 1339.41833984 710.11605957 1339.89722656 709.546875 1340.390625 C708.82709473 1341.01952637 708.82709473 1341.01952637 708.09277344 1341.66113281 C706.1875 1343.1875 706.1875 1343.1875 704.50062568 1344.10662739 C701.72623378 1345.73282421 699.58754047 1346.99203364 698.53687236 1350.13181189 C698.292253 1352.57624233 698.2710727 1354.9380634 698.32172108 1357.3944521 C698.31315418 1358.32909842 698.30458728 1359.26374475 698.29576078 1360.22671369 C698.27547238 1363.37703161 698.30531582 1366.52490665 698.33467102 1369.67512512 C698.33035419 1371.94905959 698.32295359 1374.22298995 698.31272477 1376.49690551 C698.29345052 1382.76008243 698.31786492 1389.02245596 698.34913385 1395.28555667 C698.37252465 1401.34224628 698.36306404 1407.39882324 698.35418686 1413.45552908 C698.33707913 1425.85059399 698.35198488 1438.24542578 698.38445473 1450.64045143 C698.41641431 1462.92550693 698.43217274 1475.21042172 698.42693138 1487.49551964 C698.42660671 1488.25950371 698.42628204 1489.02348779 698.42594753 1489.8106229 C698.42418674 1493.69085063 698.42209375 1497.57107811 698.41984489 1501.45130559 C698.40422815 1528.95186689 698.41802583 1556.45233889 698.4519043 1583.95288086 C698.45394209 1585.61630055 698.4559796 1587.27972024 698.45801684 1588.94313993 C698.46108382 1591.44203501 698.46415332 1593.94093009 698.46722459 1596.43982517 C698.46927434 1598.10793882 698.47132231 1599.77605247 698.47336853 1601.44416612 C698.47541691 1603.11375054 698.4774699 1604.78333496 698.47952751 1606.45291937 C698.50306255 1625.63128758 698.5190948 1644.80965902 698.53198242 1663.98803711 C698.53282074 1665.21957652 698.53282074 1665.21957652 698.533676 1666.47599552 C698.54635965 1685.23218276 698.55456197 1703.98836368 698.55294323 1722.74455547 C698.55287916 1723.53365643 698.55281509 1724.3227574 698.55274908 1725.13577051 C698.55205431 1733.01564176 698.55085873 1740.89551271 698.5487798 1748.77538372 C698.5445409 1765.68744298 698.55283224 1782.59937502 698.58614236 1799.51140455 C698.61036757 1811.84792523 698.62144196 1824.18439359 698.61874334 1836.52093849 C698.61774933 1843.20033378 698.62390424 1849.87953288 698.64748955 1856.55890083 C698.66903177 1862.68020406 698.67202519 1868.8012327 698.66065242 1874.92256065 C698.65982003 1877.13063057 698.66571842 1879.33871611 698.67923609 1881.5467448 C698.76887862 1897.00031103 697.9416004 1911.66477873 690.375 1925.5625 C689.85353394 1926.55479614 689.85353394 1926.55479614 689.3215332 1927.56713867 C678.77519797 1947.24450007 663.17554681 1960.69734203 642.1875 1968.1875 C641.56633301 1968.40921875 640.94516602 1968.6309375 640.30517578 1968.859375 C618.667533 1976.509315 597.14148681 1976.10735108 576.1875 1966.1875 C564.08166675 1959.87214923 554.70846058 1949.81493551 545.22265625 1940.19140625 C543.31263946 1938.31071793 541.34969409 1936.55337495 539.3125 1934.8125 C535.94192235 1931.92535181 532.80246479 1928.84502622 529.6875 1925.6875 C526.63412714 1922.59257759 523.56426268 1919.56815683 520.25 1916.75 C516.14323465 1913.25039503 512.40025194 1909.42767991 508.61181641 1905.59228516 C505.28183671 1902.23705443 501.84827511 1899.09032125 498.24609375 1896.02734375 C495.11596838 1893.22983133 492.20064342 1890.22125494 489.25366211 1887.23413086 C486.6482863 1884.60709998 484.00287795 1882.08749432 481.1875 1879.6875 C477.33627931 1876.4044922 473.8046114 1872.83345488 470.25390625 1869.234375 C467.64844768 1866.60726442 465.00296575 1864.08756916 462.1875 1861.6875 C458.33627931 1858.4044922 454.8046114 1854.83345488 451.25390625 1851.234375 C448.64844768 1848.60726442 446.00296575 1846.08756916 443.1875 1843.6875 C439.85452099 1840.84627199 436.76141199 1837.80328377 433.6875 1834.6875 C430.63412049 1831.59258498 427.56426315 1828.56815723 424.25 1825.75 C420.14323465 1822.25039503 416.40025194 1818.42767991 412.61181641 1814.59228516 C409.28183671 1811.23705443 405.84827511 1808.09032125 402.24609375 1805.02734375 C399.11596838 1802.22983133 396.20064342 1799.22125494 393.25366211 1796.23413086 C390.6482863 1793.60709998 388.00287795 1791.08749432 385.1875 1788.6875 C381.33627931 1785.4044922 377.8046114 1781.83345488 374.25390625 1778.234375 C371.64844768 1775.60726442 369.00296575 1773.08756916 366.1875 1770.6875 C362.33627931 1767.4044922 358.8046114 1763.83345488 355.25390625 1760.234375 C352.64844768 1757.60726442 350.00296575 1755.08756916 347.1875 1752.6875 C343.85452099 1749.84627199 340.76141199 1746.80328377 337.6875 1743.6875 C334.63412049 1740.59258498 331.56426315 1737.56815723 328.25 1734.75 C324.14323465 1731.25039503 320.40025194 1727.42767991 316.61181641 1723.59228516 C313.28183671 1720.23705443 309.84827511 1717.09032125 306.24609375 1714.02734375 C303.11596838 1711.22983133 300.20064342 1708.22125494 297.25366211 1705.23413086 C294.6482863 1702.60709998 292.00287795 1700.08749432 289.1875 1697.6875 C285.33627931 1694.4044922 281.8046114 1690.83345488 278.25390625 1687.234375 C275.64844768 1684.60726442 273.00296575 1682.08756916 270.1875 1679.6875 C266.33627931 1676.4044922 262.8046114 1672.83345488 259.25390625 1669.234375 C256.64844768 1666.60726442 254.00296575 1664.08756916 251.1875 1661.6875 C247.85452099 1658.84627199 244.76141199 1655.80328377 241.6875 1652.6875 C238.63412049 1649.59258498 235.56426315 1646.56815723 232.25 1643.75 C228.14323465 1640.25039503 224.40025194 1636.42767991 220.61181641 1632.59228516 C217.28183671 1629.23705443 213.84827511 1626.09032125 210.24609375 1623.02734375 C207.11596838 1620.22983133 204.20064342 1617.22125494 201.25366211 1614.23413086 C198.6482863 1611.60709998 196.00287795 1609.08749432 193.1875 1606.6875 C189.33627931 1603.4044922 185.8046114 1599.83345488 182.25390625 1596.234375 C179.06027074 1593.01419958 175.75208521 1590.01885512 172.30078125 1587.08203125 C168.5712571 1583.73855766 165.10618979 1580.12269054 161.60546875 1576.54296875 C158.4731833 1573.49164706 157.11366036 1572.1992341 152.66113281 1572.14282227 C151.15357466 1572.23073577 149.64672529 1572.331305 148.140625 1572.44140625 C147.3085553 1572.4939003 146.4764856 1572.54639435 145.61920166 1572.60047913 C142.80755052 1572.78272884 139.9976444 1572.98337569 137.1875 1573.1875 C136.19758057 1573.25781433 135.20766113 1573.32812866 134.18774414 1573.40057373 C125.31790991 1574.03335598 116.45071987 1574.70149287 107.58447266 1575.38256836 C72.83228314 1578.04235581 38.20399232 1579.57641335 3.34742737 1579.50555801 C0.50599104 1579.49988722 -2.33543924 1579.49708563 -5.17687988 1579.49447632 C-35.80793932 1579.45367391 -66.27408222 1578.74366316 -96.8125 1576.1875 C-98.36807617 1576.06021515 -98.36807617 1576.06021515 -99.95507812 1575.93035889 C-192.18399099 1568.3565729 -283.27142611 1550.51896804 -576.8125 1431.1875 C-577.56160645 1430.75759766 -578.31071289 1430.32769531 -579.08251953 1429.88476562 C-596.73467338 1419.73242709 -614.07582834 1408.95064188 -630.90625 1397.48583984 C-633.03829002 1396.03371525 -635.1755413 1394.58940673 -637.3125 1393.14453125 C-652.19996703 1383.04836285 -666.85406797 1372.65014221 -681.03125 1361.57421875 C-683.06687283 1359.98946852 -685.11133412 1358.41648912 -687.15625 1356.84375 C-695.21736794 1350.63030878 -703.15546004 1344.3247552 -710.875 1337.69140625 C-713.62781178 1335.34492706 -716.42687821 1333.07345946 -719.25 1330.8125 C-724.26425024 1326.73658898 -728.99292287 1322.39897206 -733.69116211 1317.96728516 C-737.33710901 1314.53045741 -741.06134851 1311.20500621 -744.84106445 1307.91601562 C-755.42709745 1298.63439165 -765.41236859 1288.68962259 -775.375 1278.75 C-775.89151123 1278.23607697 -776.40802246 1277.72215393 -776.94018555 1277.19265747 C-782.21862643 1271.93510779 -787.41092583 1266.65047957 -792.25854492 1260.98657227 C-794.81092617 1258.03158445 -797.50853891 1255.21475618 -800.1875 1252.375 C-804.9349122 1247.30614488 -809.43408629 1242.11065995 -813.77734375 1236.6875 C-815.68273067 1234.34690954 -817.65670891 1232.1068189 -819.6875 1229.875 C-824.48390275 1224.53097647 -828.85639886 1218.86715464 -833.25146484 1213.19433594 C-834.89385731 1211.08290864 -836.54932313 1208.98223261 -838.20703125 1206.8828125 C-846.08801 1196.87725323 -853.63812249 1186.7111941 -860.8125 1176.1875 C-861.54774902 1175.10919922 -862.28299805 1174.03089844 -863.04052734 1172.91992188 C-878.4079608 1150.32523591 -892.87681105 1127.27534382 -905.8125 1103.1875 C-906.26125488 1102.35702148 -906.71000977 1101.52654297 -907.17236328 1100.67089844 C-945.40396455 1029.65625572 -970.58395235 952.09676212 -984.8125 833.1875 C-984.85486786 832.53775208 -984.89723572 831.88800415 -984.94088745 831.21856689 C-985.79554637 817.8315125 -986.01442008 804.47464538 -986 791.0625 C-985.99939575 790.01502594 -985.9987915 788.96755188 -985.99816895 787.88833618 C-985.87509488 708.77497852 -971.07915135 630.96428718 -904.20361328 473.67285156 C-902.82515339 471.21010645 -901.48334507 468.7308596 -900.15234375 466.2421875 C-890.13961119 447.57798117 -878.80702095 429.63961503 -866.8125 412.1875 C-866.29365234 411.43049805 -865.77480469 410.67349609 -865.24023438 409.89355469 C-857.10237914 398.05283452 -848.65119039 386.51314402 -839.8125 375.1875 C-838.89045012 373.99753132 -837.96856862 372.80743214 -837.046875 371.6171875 C-827.66165055 359.54193057 -818.07602409 347.57703362 -807.7421875 336.296875 C-805.96079604 334.34960498 -804.2249023 332.37225529 -802.5 330.375 C-795.47857159 322.32485068 -788.21312511 314.49427501 -780.59765625 307.00390625 C-778.79331164 305.16797574 -777.11218611 303.26694806 -775.4375 301.3125 C-769.41414352 294.32869943 -762.81257645 287.95416497 -755.80859375 281.96484375 C-753.55117374 279.95481223 -751.43514287 277.83917047 -749.3125 275.6875 C-745.98129193 272.31649935 -742.56138372 269.1423597 -738.96484375 266.05859375 C-736.43197838 263.85670171 -733.96917478 261.58554174 -731.5 259.3125 C-727.01452448 255.2218944 -722.40669456 251.33932157 -717.68359375 247.52734375 C-715.13496973 245.45030186 -712.62544436 243.3380153 -710.12646484 241.20214844 C-702.84864927 234.9839968 -695.39221698 229.03252888 -687.8125 223.1875 C-687.02278809 222.57712891 -686.23307617 221.96675781 -685.41943359 221.33789062 C-682.7833376 219.30371409 -680.14242856 217.27594226 -677.5 215.25 C-676.695625 214.63036377 -675.89125 214.01072754 -675.0625 213.37231445 C-661.14582792 202.74774366 -646.63688249 192.94196825 -632.0625 183.25 C-631.27846802 182.7280304 -630.49443604 182.20606079 -629.68664551 181.66827393 C-617.54471427 173.59142699 -605.34634446 165.64690364 -592.8125 158.1875 C-591.88679199 157.63481445 -590.96108398 157.08212891 -590.00732422 156.51269531 C-575.15381399 147.67290135 -560.07421072 139.29928088 -544.8125 131.1875 C-543.90274414 130.70104004 -542.99298828 130.21458008 -542.05566406 129.71337891 C-473.93665338 93.34141888 -401.28213313 64.61405986 -326.8125 44.1875 C-326.02480225 43.9706958 -325.23710449 43.7538916 -324.42553711 43.53051758 C-244.28800738 21.51263063 -162.42768313 7.88414369 -79.5 2.4375 C-78.60182556 2.37824341 -77.70365112 2.31898682 -76.77825928 2.25793457 C-51.20280389 0.60241615 -25.62604556 -0.02169877 0 0 Z M-147.26904297 283.296875 C-150.5368491 284.11821693 -153.80993388 284.90920557 -157.08787537 285.68867493 C-190.42976629 293.61932799 -221.75474995 304.16441915 -252.5625 319.375 C-253.52655762 319.8498584 -254.49061523 320.3247168 -255.48388672 320.81396484 C-266.32763558 326.00376739 -266.32763558 326.00376739 -275.8125 333.1875 C-275.91033696 335.86819332 -275.94243911 338.52311123 -275.93275452 341.20423889 C-275.93360894 342.05447221 -275.93446337 342.90470552 -275.93534368 343.78070349 C-275.9370011 346.6520817 -275.93147286 349.52340249 -275.92602539 352.39477539 C-275.92574355 354.4441579 -275.92590119 356.49354052 -275.9264679 358.54292297 C-275.92675599 364.12533912 -275.92085736 369.70773398 -275.91389394 375.29014516 C-275.90766236 381.11712999 -275.90705676 386.94411526 -275.90586853 392.77110291 C-275.90275464 403.81377294 -275.89454047 414.85643313 -275.88451904 425.89909881 C-275.87335971 438.46720079 -275.86784791 451.03530323 -275.86282361 463.60340893 C-275.8523579 489.46477809 -275.83475734 515.32613849 -275.8125 541.1875 C-274.5477315 540.24506554 -273.2838208 539.30147985 -272.02026367 538.35742188 C-271.3163298 537.83208862 -270.61239594 537.30675537 -269.88713074 536.76550293 C-268.05262928 535.37014682 -266.26160186 533.94055926 -264.48828125 532.46875 C-239.25578962 511.53107076 -210.09325558 495.69189905 -180.8125 481.1875 C-179.78189453 480.671875 -178.75128906 480.15625 -177.68945312 479.625 C-169.26319149 475.55464318 -160.65458956 472.74604905 -151.6875 470.1875 C-150.94883698 469.97405945 -150.21017395 469.7606189 -149.4491272 469.54071045 C-99.09497506 455.01800611 -39.29060154 443.2134642 9.25 469.8125 C30.66721695 482.28969152 44.7791004 505.21592909 51.0859375 528.7734375 C56.16395991 548.72594353 56.73826471 568.04848048 52.1875 588.1875 C52.00477539 589.00831055 51.82205078 589.82912109 51.63378906 590.67480469 C44.78434165 620.24327309 26.86232284 647.28629514 5.13842773 668.23486328 C3.30098664 670.07391395 1.61777908 671.97092077 -0.0625 673.953125 C-3.67030826 678.10497543 -7.53110197 681.88800787 -11.5625 685.625 C-12.26568359 686.28113281 -12.96886719 686.93726563 -13.69335938 687.61328125 C-18.28169813 691.86158758 -23.0105675 695.85428679 -27.90234375 699.75 C-33.14166072 704.1383675 -38.04169815 708.89745927 -43.00390625 713.59375 C-48.08996612 718.40723022 -53.25493994 723.13498597 -58.57006836 727.69555664 C-63.72019122 732.13623348 -68.58046467 736.80443099 -73.375 741.625 C-74.09107422 742.33720703 -74.80714844 743.04941406 -75.54492188 743.78320312 C-79.62882158 747.87453486 -83.52801054 752.0673035 -87.30004883 756.44750977 C-89.09256478 758.50969882 -90.9843852 760.46535972 -92.875 762.4375 C-115.7707855 787.97660199 -130.5522274 819.30239919 -139.04541016 852.22216797 C-139.54887041 854.16838955 -140.06887577 856.11042125 -140.60693359 858.04736328 C-145.15778052 874.93707508 -145.1605651 891.71251459 -145.12817383 909.09545898 C-145.123535 911.78019937 -145.13050279 914.46448758 -145.14868164 917.14916992 C-145.24077035 931.7876978 -145.32771218 945.9116682 -141.8125 960.1875 C-141.51029541 961.43442627 -141.20809082 962.68135254 -140.89672852 963.96606445 C-139.9654714 967.62011953 -138.96605916 971.24724403 -137.9375 974.875 C-137.61136719 976.06416016 -137.28523437 977.25332031 -136.94921875 978.47851562 C-134.59588351 986.90748483 -131.77047587 994.90516755 -128.8125 1003.1875 C-69.7425 1003.1875 -10.6725 1003.1875 50.1875 1003.1875 C48.86080762 999.20742287 47.51820524 995.60918948 45.77587891 991.83398438 C42.82146336 985.40953171 40.31158158 978.9729239 38.3125 972.1875 C38.10971436 971.50647217 37.90692871 970.82544434 37.69799805 970.1237793 C35.63650471 962.8333059 35.03156317 955.617416 35.01953125 948.05859375 C35.01620285 947.30643082 35.01287445 946.55426788 35.00944519 945.77931213 C35.00441511 944.19524744 35.00203564 942.61117228 35.00219727 941.02709961 C35.00002767 938.65524884 34.9818766 936.28387715 34.96289062 933.91210938 C34.90742876 919.83811019 36.13548645 906.64449729 40.8125 893.25 C41.34037109 891.70940918 41.34037109 891.70940918 41.87890625 890.13769531 C51.13226526 863.8512404 67.58015251 844.3927061 87.11889648 825.05029297 C89.02203218 823.16568228 90.91677461 821.27292153 92.81054688 819.37890625 C98.76190855 813.44418272 104.70631354 807.54988361 111.1875 802.1875 C111.82357178 801.6605957 112.45964355 801.13369141 113.11499023 800.59082031 C115.06849252 798.9876731 117.03238571 797.39828407 119 795.8125 C120.04692017 794.96353149 120.04692017 794.96353149 121.11499023 794.09741211 C124.11390282 791.66573999 127.11835393 789.24246929 130.140625 786.83984375 C136.83896841 781.47515255 143.08823218 775.70770795 149.31640625 769.8125 C152.11443991 767.169733 154.96521906 764.5960295 157.84130859 762.03857422 C162.90862792 757.48327863 167.77691703 752.75930465 172.59765625 747.9453125 C173.45000351 747.09629364 174.30235077 746.24727478 175.18052673 745.37252808 C176.9674379 743.59064008 178.75303309 741.80743149 180.53735352 740.02294922 C183.24149147 737.32100164 185.95354093 734.62716875 188.66601562 731.93359375 C196.95248645 723.67412603 205.11563162 715.53189168 212.1875 706.1875 C213.06670133 705.09059312 213.9478778 703.99526294 214.83203125 702.90234375 C221.26727532 694.65827432 227.08386276 686.06612646 232.79296875 677.30664062 C234.02663084 675.43195804 235.28572855 673.57981087 236.5625 671.734375 C275.90125297 613.56921882 286.30752529 536.94261824 273.375 468.88671875 C269.88632793 451.71149114 264.98357838 435.34007664 258.1875 419.1875 C257.70861328 418.04909668 257.22972656 416.91069336 256.73632812 415.73779297 C244.74353837 387.53377586 230.15128232 361.06509564 206.1875 341.1875 C205.32769531 340.45144531 204.46789063 339.71539062 203.58203125 338.95703125 C149.96253789 293.44196874 88.57895549 276.915206 19.1875 271.1875 C18.09203857 271.09178711 16.99657715 270.99607422 15.86791992 270.89746094 C1.39922105 269.80311543 -13.12326494 269.94161841 -27.625 269.9375 C-28.33736565 269.93705814 -29.04973129 269.93661629 -29.78368378 269.93616104 C-69.82416688 269.92314723 -108.31525858 273.34573502 -147.26904297 283.296875 Z M-69.8125 1083.1875 C-70.50778809 1083.3431543 -71.20307617 1083.49880859 -71.91943359 1083.65917969 C-95.7996772 1089.24331133 -117.33249572 1102.16842889 -134.8125 1119.1875 C-135.658125 1119.991875 -136.50375 1120.79625 -137.375 1121.625 C-138.5815625 1122.8934375 -138.5815625 1122.8934375 -139.8125 1124.1875 C-140.47765625 1124.8578125 -141.1428125 1125.528125 -141.828125 1126.21875 C-161.47513255 1146.80132934 -166.75450685 1172.87936943 -166.1328125 1200.421875 C-165.84522829 1207.9652709 -165.01465664 1214.9328146 -162.8125 1222.1875 C-162.4721875 1223.33347656 -162.131875 1224.47945312 -161.78125 1225.66015625 C-155.74436119 1244.07674608 -145.12774389 1259.22653358 -131.8125 1273.1875 C-131.04969727 1274.00057617 -131.04969727 1274.00057617 -130.27148438 1274.83007812 C-126.06193854 1279.20245054 -121.62620551 1282.72824813 -116.5625 1286.0625 C-115.78310059 1286.57570801 -115.00370117 1287.08891602 -114.20068359 1287.61767578 C-96.62203533 1298.91396884 -76.66134465 1306.80918735 -55.8125 1309.1875 C-54.95269531 1309.29707031 -54.09289062 1309.40664062 -53.20703125 1309.51953125 C-16.67724887 1313.56640522 20.46590922 1304.17312592 49.50390625 1281.41796875 C55.65961393 1276.30165276 61.67128926 1270.99403763 67.1875 1265.1875 C68.07501953 1264.29224609 68.07501953 1264.29224609 68.98046875 1263.37890625 C87.77429496 1243.56723258 93.72942299 1216.00045918 93.3359375 1189.48828125 C92.57146655 1161.24671907 79.4355036 1135.52091373 59.1875 1116.1875 C50.91747304 1108.81787834 41.83865854 1102.60862365 32.1875 1097.1875 C31.59275879 1096.85121582 30.99801758 1096.51493164 30.38525391 1096.16845703 C0.42428621 1079.47468571 -36.53741047 1075.56211783 -69.8125 1083.1875 Z " fill="#FF552F" transform="translate(998.8125,12.8125)"/>
</svg>
